<mxfile host="app.diagrams.net" modified="2022-04-16T16:58:55.866Z" agent="5.0 (Windows NT 10.0; Win64; x64) AppleWebKit/537.36 (KHTML, like Gecko) Chrome/100.0.4896.88 Safari/537.36" etag="OaE0zBreJUGGTcxXSi_u" version="17.4.5" type="github">
  <diagram id="ojFBPmtNY7hdTGoGGucx" name="Page-1">
    <mxGraphModel dx="1547" dy="908" grid="1" gridSize="10" guides="1" tooltips="1" connect="1" arrows="1" fold="1" page="1" pageScale="1" pageWidth="827" pageHeight="1169" math="0" shadow="0">
      <root>
        <mxCell id="0" />
        <mxCell id="1" parent="0" />
        <mxCell id="8NutsuuDPgJiEmYGi74A-11" value="Account" style="swimlane;fontStyle=0;childLayout=stackLayout;horizontal=1;startSize=26;horizontalStack=0;resizeParent=1;resizeParentMax=0;resizeLast=0;collapsible=1;marginBottom=0;align=center;fontSize=14;" vertex="1" parent="1">
          <mxGeometry x="50" y="40" width="160" height="116" as="geometry">
            <mxRectangle x="100" y="110" width="60" height="26" as="alternateBounds" />
          </mxGeometry>
        </mxCell>
        <mxCell id="8NutsuuDPgJiEmYGi74A-12" value="email" style="text;strokeColor=none;fillColor=default;spacingLeft=4;spacingRight=4;overflow=hidden;rotatable=0;points=[[0,0.5],[1,0.5]];portConstraint=eastwest;fontSize=12;" vertex="1" parent="8NutsuuDPgJiEmYGi74A-11">
          <mxGeometry y="26" width="160" height="30" as="geometry" />
        </mxCell>
        <mxCell id="8NutsuuDPgJiEmYGi74A-13" value="password" style="text;strokeColor=none;fillColor=default;spacingLeft=4;spacingRight=4;overflow=hidden;rotatable=0;points=[[0,0.5],[1,0.5]];portConstraint=eastwest;fontSize=12;" vertex="1" parent="8NutsuuDPgJiEmYGi74A-11">
          <mxGeometry y="56" width="160" height="30" as="geometry" />
        </mxCell>
        <mxCell id="8NutsuuDPgJiEmYGi74A-14" value="uid" style="text;strokeColor=none;fillColor=default;spacingLeft=4;spacingRight=4;overflow=hidden;rotatable=0;points=[[0,0.5],[1,0.5]];portConstraint=eastwest;fontSize=12;" vertex="1" parent="8NutsuuDPgJiEmYGi74A-11">
          <mxGeometry y="86" width="160" height="30" as="geometry" />
        </mxCell>
        <mxCell id="8NutsuuDPgJiEmYGi74A-1" value="User" style="swimlane;fontStyle=0;childLayout=stackLayout;horizontal=1;startSize=26;horizontalStack=0;resizeParent=1;resizeParentMax=0;resizeLast=0;collapsible=1;marginBottom=0;align=center;fontSize=14;" vertex="1" parent="1">
          <mxGeometry x="50" y="180" width="160" height="266" as="geometry">
            <mxRectangle x="100" y="110" width="60" height="26" as="alternateBounds" />
          </mxGeometry>
        </mxCell>
        <mxCell id="8NutsuuDPgJiEmYGi74A-2" value="Uid" style="text;strokeColor=none;fillColor=#FCFCFC;spacingLeft=4;spacingRight=4;overflow=hidden;rotatable=0;points=[[0,0.5],[1,0.5]];portConstraint=eastwest;fontSize=12;" vertex="1" parent="8NutsuuDPgJiEmYGi74A-1">
          <mxGeometry y="26" width="160" height="30" as="geometry" />
        </mxCell>
        <mxCell id="8NutsuuDPgJiEmYGi74A-3" value="Name" style="text;strokeColor=none;fillColor=#FCFCFC;spacingLeft=4;spacingRight=4;overflow=hidden;rotatable=0;points=[[0,0.5],[1,0.5]];portConstraint=eastwest;fontSize=12;" vertex="1" parent="8NutsuuDPgJiEmYGi74A-1">
          <mxGeometry y="56" width="160" height="30" as="geometry" />
        </mxCell>
        <mxCell id="8NutsuuDPgJiEmYGi74A-4" value="Gender" style="text;strokeColor=none;fillColor=#FCFCFC;spacingLeft=4;spacingRight=4;overflow=hidden;rotatable=0;points=[[0,0.5],[1,0.5]];portConstraint=eastwest;fontSize=12;" vertex="1" parent="8NutsuuDPgJiEmYGi74A-1">
          <mxGeometry y="86" width="160" height="30" as="geometry" />
        </mxCell>
        <mxCell id="8NutsuuDPgJiEmYGi74A-5" value="Profession" style="text;strokeColor=none;fillColor=#FCFCFC;spacingLeft=4;spacingRight=4;overflow=hidden;rotatable=0;points=[[0,0.5],[1,0.5]];portConstraint=eastwest;fontSize=12;" vertex="1" parent="8NutsuuDPgJiEmYGi74A-1">
          <mxGeometry y="116" width="160" height="30" as="geometry" />
        </mxCell>
        <mxCell id="8NutsuuDPgJiEmYGi74A-6" value="Department" style="text;strokeColor=none;fillColor=#FCFCFC;spacingLeft=4;spacingRight=4;overflow=hidden;rotatable=0;points=[[0,0.5],[1,0.5]];portConstraint=eastwest;fontSize=12;" vertex="1" parent="8NutsuuDPgJiEmYGi74A-1">
          <mxGeometry y="146" width="160" height="30" as="geometry" />
        </mxCell>
        <mxCell id="8NutsuuDPgJiEmYGi74A-7" value="Character" style="text;strokeColor=none;fillColor=#FCFCFC;spacingLeft=4;spacingRight=4;overflow=hidden;rotatable=0;points=[[0,0.5],[1,0.5]];portConstraint=eastwest;fontSize=12;" vertex="1" parent="8NutsuuDPgJiEmYGi74A-1">
          <mxGeometry y="176" width="160" height="30" as="geometry" />
        </mxCell>
        <mxCell id="8NutsuuDPgJiEmYGi74A-8" value="Records" style="text;strokeColor=none;fillColor=#FCFCFC;spacingLeft=4;spacingRight=4;overflow=hidden;rotatable=0;points=[[0,0.5],[1,0.5]];portConstraint=eastwest;fontSize=12;" vertex="1" parent="8NutsuuDPgJiEmYGi74A-1">
          <mxGeometry y="206" width="160" height="30" as="geometry" />
        </mxCell>
        <mxCell id="8NutsuuDPgJiEmYGi74A-10" value="PicUrl" style="text;strokeColor=none;fillColor=#FCFCFC;spacingLeft=4;spacingRight=4;overflow=hidden;rotatable=0;points=[[0,0.5],[1,0.5]];portConstraint=eastwest;fontSize=12;" vertex="1" parent="8NutsuuDPgJiEmYGi74A-1">
          <mxGeometry y="236" width="160" height="30" as="geometry" />
        </mxCell>
        <mxCell id="8NutsuuDPgJiEmYGi74A-21" value="Badge" style="swimlane;fontStyle=0;childLayout=stackLayout;horizontal=1;startSize=26;horizontalStack=0;resizeParent=1;resizeParentMax=0;resizeLast=0;collapsible=1;marginBottom=0;align=center;fontSize=14;" vertex="1" parent="1">
          <mxGeometry x="240" y="216" width="160" height="326" as="geometry">
            <mxRectangle x="100" y="110" width="60" height="26" as="alternateBounds" />
          </mxGeometry>
        </mxCell>
        <mxCell id="8NutsuuDPgJiEmYGi74A-22" value="Bid" style="text;strokeColor=none;fillColor=#FCFCFC;spacingLeft=4;spacingRight=4;overflow=hidden;rotatable=0;points=[[0,0.5],[1,0.5]];portConstraint=eastwest;fontSize=12;" vertex="1" parent="8NutsuuDPgJiEmYGi74A-21">
          <mxGeometry y="26" width="160" height="30" as="geometry" />
        </mxCell>
        <mxCell id="8NutsuuDPgJiEmYGi74A-23" value="Name" style="text;strokeColor=none;fillColor=#FCFCFC;spacingLeft=4;spacingRight=4;overflow=hidden;rotatable=0;points=[[0,0.5],[1,0.5]];portConstraint=eastwest;fontSize=12;" vertex="1" parent="8NutsuuDPgJiEmYGi74A-21">
          <mxGeometry y="56" width="160" height="30" as="geometry" />
        </mxCell>
        <mxCell id="8NutsuuDPgJiEmYGi74A-24" value="PublisherId" style="text;strokeColor=none;fillColor=#FCFCFC;spacingLeft=4;spacingRight=4;overflow=hidden;rotatable=0;points=[[0,0.5],[1,0.5]];portConstraint=eastwest;fontSize=12;" vertex="1" parent="8NutsuuDPgJiEmYGi74A-21">
          <mxGeometry y="86" width="160" height="30" as="geometry" />
        </mxCell>
        <mxCell id="8NutsuuDPgJiEmYGi74A-25" value="BadgeType" style="text;strokeColor=none;fillColor=#FCFCFC;spacingLeft=4;spacingRight=4;overflow=hidden;rotatable=0;points=[[0,0.5],[1,0.5]];portConstraint=eastwest;fontSize=12;" vertex="1" parent="8NutsuuDPgJiEmYGi74A-21">
          <mxGeometry y="116" width="160" height="30" as="geometry" />
        </mxCell>
        <mxCell id="8NutsuuDPgJiEmYGi74A-26" value="PublishTime" style="text;strokeColor=none;fillColor=#FCFCFC;spacingLeft=4;spacingRight=4;overflow=hidden;rotatable=0;points=[[0,0.5],[1,0.5]];portConstraint=eastwest;fontSize=12;" vertex="1" parent="8NutsuuDPgJiEmYGi74A-21">
          <mxGeometry y="146" width="160" height="30" as="geometry" />
        </mxCell>
        <mxCell id="8NutsuuDPgJiEmYGi74A-27" value="UpdateTimeÂ " style="text;strokeColor=none;fillColor=#FCFCFC;spacingLeft=4;spacingRight=4;overflow=hidden;rotatable=0;points=[[0,0.5],[1,0.5]];portConstraint=eastwest;fontSize=12;" vertex="1" parent="8NutsuuDPgJiEmYGi74A-21">
          <mxGeometry y="176" width="160" height="30" as="geometry" />
        </mxCell>
        <mxCell id="8NutsuuDPgJiEmYGi74A-28" value="Description" style="text;strokeColor=none;fillColor=#FCFCFC;spacingLeft=4;spacingRight=4;overflow=hidden;rotatable=0;points=[[0,0.5],[1,0.5]];portConstraint=eastwest;fontSize=12;" vertex="1" parent="8NutsuuDPgJiEmYGi74A-21">
          <mxGeometry y="206" width="160" height="30" as="geometry" />
        </mxCell>
        <mxCell id="8NutsuuDPgJiEmYGi74A-29" value="Validity" style="text;strokeColor=none;fillColor=#FCFCFC;spacingLeft=4;spacingRight=4;overflow=hidden;rotatable=0;points=[[0,0.5],[1,0.5]];portConstraint=eastwest;fontSize=12;" vertex="1" parent="8NutsuuDPgJiEmYGi74A-21">
          <mxGeometry y="236" width="160" height="30" as="geometry" />
        </mxCell>
        <mxCell id="8NutsuuDPgJiEmYGi74A-30" value="Challenges" style="text;strokeColor=none;fillColor=#FCFCFC;spacingLeft=4;spacingRight=4;overflow=hidden;rotatable=0;points=[[0,0.5],[1,0.5]];portConstraint=eastwest;fontSize=12;" vertex="1" parent="8NutsuuDPgJiEmYGi74A-21">
          <mxGeometry y="266" width="160" height="30" as="geometry" />
        </mxCell>
        <mxCell id="8NutsuuDPgJiEmYGi74A-31" value="Icon" style="text;strokeColor=none;fillColor=#FCFCFC;spacingLeft=4;spacingRight=4;overflow=hidden;rotatable=0;points=[[0,0.5],[1,0.5]];portConstraint=eastwest;fontSize=12;" vertex="1" parent="8NutsuuDPgJiEmYGi74A-21">
          <mxGeometry y="296" width="160" height="30" as="geometry" />
        </mxCell>
        <mxCell id="8NutsuuDPgJiEmYGi74A-32" value="Challenge" style="swimlane;fontStyle=0;childLayout=stackLayout;horizontal=1;startSize=26;horizontalStack=0;resizeParent=1;resizeParentMax=0;resizeLast=0;collapsible=1;marginBottom=0;align=center;fontSize=14;" vertex="1" parent="1">
          <mxGeometry x="414" y="305" width="160" height="116" as="geometry">
            <mxRectangle x="100" y="110" width="60" height="26" as="alternateBounds" />
          </mxGeometry>
        </mxCell>
        <mxCell id="8NutsuuDPgJiEmYGi74A-33" value="ChallengeID" style="text;strokeColor=none;fillColor=#FCFCFC;spacingLeft=4;spacingRight=4;overflow=hidden;rotatable=0;points=[[0,0.5],[1,0.5]];portConstraint=eastwest;fontSize=12;" vertex="1" parent="8NutsuuDPgJiEmYGi74A-32">
          <mxGeometry y="26" width="160" height="30" as="geometry" />
        </mxCell>
        <mxCell id="8NutsuuDPgJiEmYGi74A-34" value="NameÂ Â " style="text;strokeColor=none;fillColor=#FCFCFC;spacingLeft=4;spacingRight=4;overflow=hidden;rotatable=0;points=[[0,0.5],[1,0.5]];portConstraint=eastwest;fontSize=12;" vertex="1" parent="8NutsuuDPgJiEmYGi74A-32">
          <mxGeometry y="56" width="160" height="30" as="geometry" />
        </mxCell>
        <mxCell id="8NutsuuDPgJiEmYGi74A-35" value="Description" style="text;strokeColor=none;fillColor=#FCFCFC;spacingLeft=4;spacingRight=4;overflow=hidden;rotatable=0;points=[[0,0.5],[1,0.5]];portConstraint=eastwest;fontSize=12;" vertex="1" parent="8NutsuuDPgJiEmYGi74A-32">
          <mxGeometry y="86" width="160" height="30" as="geometry" />
        </mxCell>
        <mxCell id="8NutsuuDPgJiEmYGi74A-52" value="Record" style="swimlane;fontStyle=0;childLayout=stackLayout;horizontal=1;startSize=26;horizontalStack=0;resizeParent=1;resizeParentMax=0;resizeLast=0;collapsible=1;marginBottom=0;align=center;fontSize=14;" vertex="1" parent="1">
          <mxGeometry x="640" y="10" width="160" height="206" as="geometry">
            <mxRectangle x="100" y="110" width="60" height="26" as="alternateBounds" />
          </mxGeometry>
        </mxCell>
        <mxCell id="8NutsuuDPgJiEmYGi74A-53" value="Bid" style="text;strokeColor=none;fillColor=#FCFCFC;spacingLeft=4;spacingRight=4;overflow=hidden;rotatable=0;points=[[0,0.5],[1,0.5]];portConstraint=eastwest;fontSize=12;" vertex="1" parent="8NutsuuDPgJiEmYGi74A-52">
          <mxGeometry y="26" width="160" height="30" as="geometry" />
        </mxCell>
        <mxCell id="8NutsuuDPgJiEmYGi74A-54" value="Uid" style="text;strokeColor=none;fillColor=#FCFCFC;spacingLeft=4;spacingRight=4;overflow=hidden;rotatable=0;points=[[0,0.5],[1,0.5]];portConstraint=eastwest;fontSize=12;" vertex="1" parent="8NutsuuDPgJiEmYGi74A-52">
          <mxGeometry y="56" width="160" height="30" as="geometry" />
        </mxCell>
        <mxCell id="8NutsuuDPgJiEmYGi74A-55" value="Finish" style="text;strokeColor=none;fillColor=#FCFCFC;spacingLeft=4;spacingRight=4;overflow=hidden;rotatable=0;points=[[0,0.5],[1,0.5]];portConstraint=eastwest;fontSize=12;" vertex="1" parent="8NutsuuDPgJiEmYGi74A-52">
          <mxGeometry y="86" width="160" height="30" as="geometry" />
        </mxCell>
        <mxCell id="8NutsuuDPgJiEmYGi74A-56" value="Tasks" style="text;strokeColor=none;fillColor=#FCFCFC;spacingLeft=4;spacingRight=4;overflow=hidden;rotatable=0;points=[[0,0.5],[1,0.5]];portConstraint=eastwest;fontSize=12;" vertex="1" parent="8NutsuuDPgJiEmYGi74A-52">
          <mxGeometry y="116" width="160" height="30" as="geometry" />
        </mxCell>
        <mxCell id="8NutsuuDPgJiEmYGi74A-57" value="LaunchTime" style="text;strokeColor=none;fillColor=#FCFCFC;spacingLeft=4;spacingRight=4;overflow=hidden;rotatable=0;points=[[0,0.5],[1,0.5]];portConstraint=eastwest;fontSize=12;" vertex="1" parent="8NutsuuDPgJiEmYGi74A-52">
          <mxGeometry y="146" width="160" height="30" as="geometry" />
        </mxCell>
        <mxCell id="8NutsuuDPgJiEmYGi74A-58" value="FinishTime" style="text;strokeColor=none;fillColor=#FCFCFC;spacingLeft=4;spacingRight=4;overflow=hidden;rotatable=0;points=[[0,0.5],[1,0.5]];portConstraint=eastwest;fontSize=12;" vertex="1" parent="8NutsuuDPgJiEmYGi74A-52">
          <mxGeometry y="176" width="160" height="30" as="geometry" />
        </mxCell>
        <mxCell id="8NutsuuDPgJiEmYGi74A-41" value="Task" style="swimlane;fontStyle=0;childLayout=stackLayout;horizontal=1;startSize=26;horizontalStack=0;resizeParent=1;resizeParentMax=0;resizeLast=0;collapsible=1;marginBottom=0;align=center;fontSize=14;" vertex="1" parent="1">
          <mxGeometry x="610" y="260" width="160" height="206" as="geometry">
            <mxRectangle x="100" y="110" width="60" height="26" as="alternateBounds" />
          </mxGeometry>
        </mxCell>
        <mxCell id="8NutsuuDPgJiEmYGi74A-42" value="ChallengeID" style="text;strokeColor=none;fillColor=#FCFCFC;spacingLeft=4;spacingRight=4;overflow=hidden;rotatable=0;points=[[0,0.5],[1,0.5]];portConstraint=eastwest;fontSize=12;" vertex="1" parent="8NutsuuDPgJiEmYGi74A-41">
          <mxGeometry y="26" width="160" height="30" as="geometry" />
        </mxCell>
        <mxCell id="8NutsuuDPgJiEmYGi74A-43" value="FileDigest" style="text;strokeColor=none;fillColor=#FCFCFC;spacingLeft=4;spacingRight=4;overflow=hidden;rotatable=0;points=[[0,0.5],[1,0.5]];portConstraint=eastwest;fontSize=12;" vertex="1" parent="8NutsuuDPgJiEmYGi74A-41">
          <mxGeometry y="56" width="160" height="30" as="geometry" />
        </mxCell>
        <mxCell id="8NutsuuDPgJiEmYGi74A-44" value="FileUrl" style="text;strokeColor=none;fillColor=#FCFCFC;spacingLeft=4;spacingRight=4;overflow=hidden;rotatable=0;points=[[0,0.5],[1,0.5]];portConstraint=eastwest;fontSize=12;" vertex="1" parent="8NutsuuDPgJiEmYGi74A-41">
          <mxGeometry y="86" width="160" height="30" as="geometry" />
        </mxCell>
        <mxCell id="8NutsuuDPgJiEmYGi74A-45" value="SubmitNumber" style="text;strokeColor=none;fillColor=#FCFCFC;spacingLeft=4;spacingRight=4;overflow=hidden;rotatable=0;points=[[0,0.5],[1,0.5]];portConstraint=eastwest;fontSize=12;" vertex="1" parent="8NutsuuDPgJiEmYGi74A-41">
          <mxGeometry y="116" width="160" height="30" as="geometry" />
        </mxCell>
        <mxCell id="8NutsuuDPgJiEmYGi74A-46" value="SubmissionTime" style="text;strokeColor=none;fillColor=#FCFCFC;spacingLeft=4;spacingRight=4;overflow=hidden;rotatable=0;points=[[0,0.5],[1,0.5]];portConstraint=eastwest;fontSize=12;" vertex="1" parent="8NutsuuDPgJiEmYGi74A-41">
          <mxGeometry y="146" width="160" height="30" as="geometry" />
        </mxCell>
        <mxCell id="8NutsuuDPgJiEmYGi74A-47" value="Score" style="text;strokeColor=none;fillColor=#FCFCFC;spacingLeft=4;spacingRight=4;overflow=hidden;rotatable=0;points=[[0,0.5],[1,0.5]];portConstraint=eastwest;fontSize=12;" vertex="1" parent="8NutsuuDPgJiEmYGi74A-41">
          <mxGeometry y="176" width="160" height="30" as="geometry" />
        </mxCell>
        <mxCell id="8NutsuuDPgJiEmYGi74A-61" style="edgeStyle=orthogonalEdgeStyle;rounded=0;orthogonalLoop=1;jettySize=auto;html=1;fontSize=32;" edge="1" parent="1" source="8NutsuuDPgJiEmYGi74A-59" target="8NutsuuDPgJiEmYGi74A-11">
          <mxGeometry relative="1" as="geometry" />
        </mxCell>
        <mxCell id="8NutsuuDPgJiEmYGi74A-62" style="edgeStyle=orthogonalEdgeStyle;rounded=0;orthogonalLoop=1;jettySize=auto;html=1;exitX=0;exitY=0.75;exitDx=0;exitDy=0;entryX=1;entryY=0.075;entryDx=0;entryDy=0;entryPerimeter=0;fontSize=32;" edge="1" parent="1" source="8NutsuuDPgJiEmYGi74A-59" target="8NutsuuDPgJiEmYGi74A-1">
          <mxGeometry relative="1" as="geometry" />
        </mxCell>
        <mxCell id="8NutsuuDPgJiEmYGi74A-63" style="edgeStyle=orthogonalEdgeStyle;rounded=0;orthogonalLoop=1;jettySize=auto;html=1;exitX=0.25;exitY=1;exitDx=0;exitDy=0;entryX=0.5;entryY=0;entryDx=0;entryDy=0;fontSize=32;" edge="1" parent="1" source="8NutsuuDPgJiEmYGi74A-59" target="8NutsuuDPgJiEmYGi74A-21">
          <mxGeometry relative="1" as="geometry" />
        </mxCell>
        <mxCell id="8NutsuuDPgJiEmYGi74A-64" style="edgeStyle=orthogonalEdgeStyle;rounded=0;orthogonalLoop=1;jettySize=auto;html=1;exitX=0.75;exitY=1;exitDx=0;exitDy=0;entryX=0.5;entryY=0;entryDx=0;entryDy=0;fontSize=32;" edge="1" parent="1" source="8NutsuuDPgJiEmYGi74A-59" target="8NutsuuDPgJiEmYGi74A-32">
          <mxGeometry relative="1" as="geometry" />
        </mxCell>
        <mxCell id="8NutsuuDPgJiEmYGi74A-65" style="edgeStyle=orthogonalEdgeStyle;rounded=0;orthogonalLoop=1;jettySize=auto;html=1;exitX=1;exitY=0.75;exitDx=0;exitDy=0;entryX=0;entryY=0.129;entryDx=0;entryDy=0;entryPerimeter=0;fontSize=32;" edge="1" parent="1" source="8NutsuuDPgJiEmYGi74A-59" target="8NutsuuDPgJiEmYGi74A-42">
          <mxGeometry relative="1" as="geometry" />
        </mxCell>
        <mxCell id="8NutsuuDPgJiEmYGi74A-66" style="edgeStyle=orthogonalEdgeStyle;rounded=0;orthogonalLoop=1;jettySize=auto;html=1;exitX=1;exitY=0.25;exitDx=0;exitDy=0;fontSize=32;" edge="1" parent="1" source="8NutsuuDPgJiEmYGi74A-59" target="8NutsuuDPgJiEmYGi74A-53">
          <mxGeometry relative="1" as="geometry" />
        </mxCell>
        <mxCell id="8NutsuuDPgJiEmYGi74A-59" value="&lt;font style=&quot;font-size: 32px&quot;&gt;&lt;b&gt;Struct&lt;/b&gt;&lt;/font&gt;" style="rounded=0;whiteSpace=wrap;html=1;fillColor=default;" vertex="1" parent="1">
          <mxGeometry x="370" y="83" width="140" height="87" as="geometry" />
        </mxCell>
      </root>
    </mxGraphModel>
  </diagram>
</mxfile>
